<svg xmlns="http://www.w3.org/2000/svg" viewBox="0 0 377.55 430.11"><title>drupal</title><path d="M309,80c-22-13.69-42.85-19.06-63.63-32.76C232.52,38.53,214.65,17.81,199.66,0,196.77,28.59,188,40.22,178,48.51,156.87,65.06,143.55,70,125.24,80c-15.39,7.88-99,57.58-99,164.51s90.24,185.62,190.42,185.62S403.83,357.61,403.83,247.8,322.33,88.26,309,80Zm1.69,308.33c-2.09,2.06-21.22,15.32-43.66,17.41S214.25,409,196,392.45a5.92,5.92,0,0,1,0-8.68c2.07-1.68,3.73-2.93,6.24-2.93s2.06,0,3.33.83c8.31,6.64,20.78,12,47.37,12s45.35-7.42,53.65-13.67c3.74-2.89,5.4-.4,5.83,1.26S313.63,385.43,310.72,388.32Zm-72.06-34.88c4.57-4.16,12.08-10.79,19.15-13.68s10.77-2.49,17.45-2.49S289,337.68,294,341s7.9,10.75,9.53,14.87,0,6.65-3.3,8.32c-2.89,1.64-3.32.82-6.23-4.55s-5.4-10.79-20-10.79-19.12,5-26.19,10.79-9.57,7.86-12.07,4.55S234.1,357.56,238.66,353.43Zm150.07-79c0,12.83-4.14,36-14.15,50.54s-16.18,19.92-27.86,19.08c-15-1.26-44.9-47.66-64-48.51-24.08-.82-76.49,50.18-117.67,50.18-25,0-32.41-3.73-40.72-9.14-12.49-8.7-18.74-22-18.33-40.19.45-32.34,30.76-62.56,69-63,48.62-.43,82.34,48,106.84,47.63,20.8-.39,60.74-41,80.27-41C382.92,240,388.74,261.56,388.74,274.44Z" transform="translate(-26.28)"/></svg>