<svg xmlns="http://www.w3.org/2000/svg" viewBox="0 0 121.5 121.5"><defs><style>.a{fill:#fff;}.b{fill:none;}</style></defs><title>home</title><path class="a" d="M99.2,64.9,64,33.73,28.8,64.91v44.55a2.07,2.07,0,0,0,2.08,2.07h22V92A2.07,2.07,0,0,1,55,89.92H73A2.07,2.07,0,0,1,75.12,92v19.53h22a2.07,2.07,0,0,0,2.07-2.07V64.9Z" transform="translate(-5.38 -2.5)"/><path class="a" d="M63.81,16.68,13.87,60.89l5.26,5.93L64,27.09l44.87,39.74,5.25-5.93L64.21,16.68,64,16.9l-.2-.22Z" transform="translate(-5.38 -2.5)"/><path class="a" d="M28.8,23H41.46l-.11,7.5L28.8,41.85V23Z" transform="translate(-5.38 -2.5)"/><rect class="b" width="121.5" height="121.5"/></svg>