<svg xmlns="http://www.w3.org/2000/svg" viewBox="0 0 551.08 980.02"><defs><style>.a{fill:#fff;}</style></defs><title>resume</title><path class="a" d="M254.92,12.62C243.62,16.07,230.21,28.9,226.77,39c-4.79,14.94-1.92,27.2,22.6,96.33,12.64,36,25.09,69.14,27.39,73.54,5.17,10.34,20.68,26.81,32.17,34.09,17.81,11.49,23,11.87,104,11.3l73.35-.57,12.45-6.13c14.94-7.28,33.52-25.47,41-40.41,2.87-5.55,15.51-39.64,28.15-75.65,18.58-53.05,23-67.61,23-76.23.19-18.19-8-32-24.13-40.6-7.66-4.21-8-4.21-155.13-4.6C285.37,9.75,262.77,10.13,254.92,12.62Z" transform="translate(-224.46 -10)"/><path class="a" d="M360.83,318.09c-7.66,3.07-17.24,13.41-19.15,20.88-7.47,28.15-117.21,513.84-117.21,519.2A34.68,34.68,0,0,0,235,884.22c7.09,6.89,149.77,99.21,159.34,103.23a36.12,36.12,0,0,0,27.2-.19c4-1.72,41.18-25.09,82.93-52.09,52.28-33.71,77.18-50.94,80.25-55.35,10.15-14.94,13.21,1.72-51.52-282.68-39.26-171.79-60.9-263-63.39-267.17-2.11-3.25-7.47-7.85-12.06-10-7.47-3.64-11.49-4-50.18-3.83C384.58,316.17,363.51,317.13,360.83,318.09Z" transform="translate(-224.46 -10)"/><path class="a" d="M557.14,425.34c-.38,1.53,5.36,30.64,13,64.92L584,552.5l52.67,65.69,52.48,65.5,42.9-.38,42.9-.57.57-39.26c.19-21.64,0-41.17-.57-43.47-.57-2.87-33.52-30.45-100.74-84.27C619.38,471.87,570.73,433,566.33,429.36,560.39,424.57,557.9,423.61,557.14,425.34Z" transform="translate(-224.46 -10)"/></svg>