<svg xmlns="http://www.w3.org/2000/svg" viewBox="0 0 90 90.2"><title>wordpress</title><path d="M5.18,23.15C12.69,9.15,27.74,0,45.1,0,56.33,0,66.6,4.79,74.48,11.55A10.43,10.43,0,0,0,67.29,13c-5.8,3.33-7.7,12.74-.18,17.47,4.7,2.94,6.37,10.28,6.21,14.77S62.41,70.4,62.41,70.4l-10.48-36s-.36-2.52-.36-3.25a4.37,4.37,0,0,1,.87-2.68c.39-.43,1-1.32,1.69-1.32h5v-4h-27v4h.84c.88,0,1.75,1.19,2.58,2,1,1,2.23,4.85,3.73,8.82L43.17,51,34.71,70.5,25.43,31.43s.27-2.68.83-3.13c.37-.31.93-1.14,1.58-1.14h.25v-4Zm5.29,6.79S8.29,27.15,6,27.15H3.62A45.57,45.57,0,0,0,.1,45,44.65,44.65,0,0,0,27.63,86.18ZM83.82,22.8a28.9,28.9,0,0,1-1,14.39C78.48,51.28,67.71,76.62,63.54,86.27A44.64,44.64,0,0,0,90.1,45.54,44.19,44.19,0,0,0,83.82,22.8ZM46,60.83,34.5,88.94a45.36,45.36,0,0,0,21.55-.08Z" transform="translate(-0.1)"/></svg>